<svg xmlns="http://www.w3.org/2000/svg" width="1200" height="800" viewBox="-8.659095 -3.96895 75.04549 23.8137"><path d="M55.9348 8.1663c-.9837 0-1.2898-.7902-1.6176-.7902-.5902 0-1.9893 3.337-2.2953 4.237l-1.246 3.8197h-3.3445l.918-3.4027c.2843-1.0538.8527-3.2928.8527-4.3466 0-1.0493-.6973-.5639-1.0162-.8394a3.1394 3.1394 0 00.0138-.6716 3.258 3.258 0 00-.033-.2453c2.4167-.2531 3.5142-1.1195 3.7896-1.1195.3717 0 .3936 1.3391.3936 1.4929 0 .9-.1312 1.7781-.328 2.6343h.0875c.7651-1.4928 1.9673-4.1272 3.9785-4.1272.8087 0 1.6394.6806 1.6394 1.5148 0 .9878-.8088 1.8438-1.7924 1.8438zM40.9603 11.166l.009.8587c.1256 1.4433.7786 2.642 2.3903 2.5005 1.2412-.109 2.2217-.9445 2.9294-1.8882l.7104.5988c-.9848 1.541-2.9016 2.4585-4.6874 2.6154-2.4389.2143-4.5604-.9654-4.791-3.6117-.3354-3.8489 2.8348-7.2566 6.6023-7.5877 1.3718-.1204 3.1455.3408 3.2978 2.0903.183 2.0995-2.0761 4.1269-6.4608 4.424zm4.1087-4.724c-.042-.4811-.345-.9394-.8678-.8935-1.6768.1473-3.0426 3.11-3.1544 4.5963 3.1974-.325 4.1327-2.4347 4.0222-3.7028zm-6.1281-.0316h-2.1085l-1.7269 6.498c-.0656.2196-.153.5268-.153.7683 0 .3513.2186.5268.5465.5268.4348 0 1.021-.369 1.3928-.6322.0808.2835.1838.548.3069.7935l-.3886.3492.0005-.004c-.5543.4994-1.654 1.0962-2.7763 1.0962-1.1584 0-2.4264-.5488-2.4264-1.8878 0-.6148.1749-1.2734.3279-1.866l1.5085-5.6418h-1.307l.1749-.6587c.1749-.6586 1.306.0492 1.744-1.5697l.295-1.1003a.9222.9222 0 01.7918-.679l2.8802-.4528s-.1852.7285-.2289.8822l-.6122 2.349h3.2031a8.8274 8.8274 0 00-1.4444 1.2293zm-8.403-2.453c-1.1366 0-1.9237-.878-1.9237-1.9974 0-.9882.8308-1.954 1.8583-1.954 1.0928 0 1.9235.9002 1.9235 1.9758 0 1.0318-.8088 1.9757-1.8581 1.9757zm.378 1.121c.1094-.0442.2842-.1099.3935-.1099.153 0 .175.0878.175.2196 0 .0876-.1311.5488-.153.6146l-2.0176 7.3032c-.0656.2197-.1312.505-.1312.7245 0 .2633.2186.439.4592.439.2842 0 .9617-.3293 1.1804-.5269l.227-.1729c-.0777.3805-.1332.7653-.1332 1.1363 0 .0261.001.0513.002.077-.4904.487-1.675 1.0231-2.6536 1.0231-1.268 0-2.4483-.5707-2.4483-2.0195 0-.461.153-.9878.2622-1.427l1.3334-5.0272c.0438-.1535.0657-.2414.0657-.3731 0-.7683-.5012-.551-.5012-1.0337 0-.1976.14-.467.278-.6572 0 0 .2762.191 1.4255.1308 1.0245-.0537 1.4576-.0534 2.236-.3208zm-4.4768-2.54l-.1851.0164c-.0146.1314-.0392.2635-.028.3927.022.2531.1583.4492.405.4277.278-.0243.4675-.2856.643-.5302l.1678.1987c-.1406.231-.391.6276-.9823.6796-.4197.0369-.7476-.1718-.8784-.5728-.1978.236-.5344.5573-.8517.5573-.2631 0-.4542-.1244-.4542-.3579 0-.1191.0415-.2952.0774-.4147l.3303-1.104c.0207-.0779.0362-.1453.0362-.228 0-.1196-.0621-.166-.1497-.166-.1652 0-.4181.259-.5006.394l-.5422 1.804h-.6763l.8777-3.038c.0257-.0882.0373-.1667.0464-.2336.004-.0272-.0102-.0475-.0339-.064l-.8842-.003-.7588 2.7888c-.0105.0468-.0259.1039-.0259.1556 0 .171.1703.1038.1703.2436 0 .0466-.0155.0988-.036.1504h-1.1823l.0362-.1555c.0412-.1504.2116-.0106.2994-.337l.7742-2.8459h-.098c-.7279 0-.5265.7463-.924.7463h-.1187L21.277 0c.0622.002.263.006.3145.006h1.7243l.0006-.0004 1.2682.0006-.3819 1.353.0104.0104c.1808-.14.3872-.2954.6711-.2954.3251 0 .5163.2125.5163.451 0 .1245-.0258.2384-.0568.3524l-.315 1.1147c-.0257.0983-.0621.1867-.0621.254 0 .0623.0312.0985.0828.0985.0928 0 .402-.3458.4804-.435-.002-.0139-.004-.027-.005-.0413-.084-.9656.6496-1.764 1.4003-1.8297.4421-.039.649.1926.6702.4354.0496.568-.4569 1.003-1.1562 1.0641zm.687-1.0957c-.0124-.1395-.0648-.2077-.188-.1968-.3396.0297-.5804.7171-.6432 1.066.4525-.0397.864-.4924.8311-.8692zM20.7683 8.935h.0874c.765-1.4928 1.9674-4.1272 3.9785-4.1272.8088 0 1.6394.6806 1.6394 1.5148 0 .9878-.8087 1.8439-1.7924 1.8439-.9836 0-1.2897-.7903-1.6176-.7903-.5902 0-1.9892 3.337-2.2953 4.237l-1.246 3.8197h-3.3446l.9181-3.4027c.2842-1.0537.8527-3.2928.8527-4.3466 0-1.1884-.8947-.4079-1.1207-.9946l.4816-.8215a.2631.2631 0 01.054-.0163c2.5367-.4242 3.059-1.0435 3.3393-1.0435.3717 0 .3936 1.3392.3936 1.493 0 .9-.1312 1.778-.328 2.6343zm-2.1219-6.7836l-7.8476 13.3912H9.4602a.4593.4593 0 01-.4578-.433L8.5456 7.429c-.006-.102-.1401-.1348-.192-.0466l-4.8122 8.1601H2.2061a.4594.4594 0 01-.4579-.4366l-.677-13.0642C1.0275.856 0 1.383 0 .7026 0 .5707.175.1317.1968 0h5.7077l-.153.549c-.2842.9657-1.3356.1756-1.2484 1.7562l.4196 8.024c.005.1023.1393.1358.1918.048L8.46 4.7636l-.153-2.7221C8.2411.922 7.2138 1.3172 7.2138.7026c0-.1319.1312-.5709.1529-.7026H13.4l-.1968.7246c-.2842.9658-1.4427-.2415-1.3552 1.7121l.3764 7.7094c.005.103.1403.1364.1924.0475l4.2403-7.2519c.1968-.3293.5466-.9219.5466-1.2952 0-.5707-.8089-.4829-.8089-.944 0-.1756.1311-.5487.175-.7025h3.869l-.1748.549c-.3062.9879-.8525.307-1.6177 1.6023z"/></svg>